<?xml version="1.0" encoding="UTF-8" standalone="no"?>
<svg width="59px" height="56px" viewBox="0 0 59 56" version="1.1" xmlns="http://www.w3.org/2000/svg" xmlns:xlink="http://www.w3.org/1999/xlink" xmlns:sketch="http://www.bohemiancoding.com/sketch/ns">
    <!-- Generator: Sketch 3.3.3 (12072) - http://www.bohemiancoding.com/sketch -->
    <title>Fill 3</title>
    <desc>Created with Sketch.</desc>
    <defs></defs>
    <g id="Page-1" stroke="none" stroke-width="1" fill="none" fill-rule="evenodd" sketch:type="MSPage">
        <g id="Frontpage" sketch:type="MSArtboardGroup" transform="translate(-1466.000000, -64.000000)" fill="#FFFFFF">
            <g id="Signin-Copy" sketch:type="MSLayerGroup" transform="translate(1466.000000, 64.000000)">
                <path d="M29.4973617,0.0562832978 C13.6782057,0.0562832978 0.849105823,12.8836243 0.849105823,28.7080569 C0.849105823,41.3665477 9.05768946,52.1043671 20.4427681,55.8929441 C21.8762362,56.1567726 22.3986166,55.2720678 22.3986166,54.5122417 C22.3986166,53.8333231 22.3739926,52.0304951 22.3599217,49.640209 C14.3905426,51.3709239 12.7090757,45.7988662 12.7090757,45.7988662 C11.405763,42.4886982 9.52730416,41.607511 9.52730416,41.607511 C6.92595529,39.8310659 9.7242961,39.866243 9.7242961,39.866243 C12.6000266,40.0685115 14.1126433,42.8193632 14.1126433,42.8193632 C16.6682619,47.1971572 20.8191634,45.9325393 22.4513823,45.1990961 C22.711693,43.348779 23.4521717,42.08592 24.27004,41.3700654 C17.9082557,40.6471753 11.2193242,38.1882938 11.2193242,27.2095111 C11.2193242,24.0822641 12.3361981,21.5231278 14.1689267,19.521549 C13.8734388,18.7969001 12.8902379,15.8824748 14.4503437,11.9391183 C14.4503437,11.9391183 16.8547007,11.1687391 22.3282623,14.8764088 C24.613017,14.2397027 27.0648631,13.9231085 29.5008794,13.9107965 C31.9351369,13.9231085 34.3852241,14.2397027 36.6734965,14.8764088 C42.1435405,11.1687391 44.5443797,11.9391183 44.5443797,11.9391183 C46.1080032,15.8824748 45.1248024,18.7969001 44.8310733,19.521549 C46.6673196,21.5231278 47.7753992,24.0822641 47.7753992,27.2095111 C47.7753992,38.2164355 41.0759145,40.6383811 34.6947829,41.3472003 C35.7219551,42.2319051 36.6383194,43.9802085 36.6383194,46.6536705 C36.6383194,50.4827013 36.6031423,53.5730123 36.6031423,54.5122417 C36.6031423,55.2791032 37.1202461,56.1708435 38.5730616,55.8911853 C49.949346,52.0938139 58.1508942,41.36303 58.1508942,28.7080569 C58.1508942,12.8836243 45.3217943,0.0562832978 29.4973617,0.0562832978" id="Fill-3" sketch:type="MSShapeGroup"></path>
            </g>
        </g>
    </g>
</svg>
